<mxfile host="app.diagrams.net" modified="2021-10-09T16:01:58.134Z" agent="5.0 (Windows NT 10.0; Win64; x64) AppleWebKit/537.36 (KHTML, like Gecko) Chrome/94.0.4606.71 Safari/537.36" etag="yvQaNGnX0iXrapnImfDQ" version="15.5.0" type="github">
  <diagram id="Uq3l2EWZINXqB6MkOoWw" name="전체적인 순서도">
    <mxGraphModel dx="782" dy="468" grid="1" gridSize="10" guides="1" tooltips="1" connect="1" arrows="1" fold="1" page="1" pageScale="1" pageWidth="3300" pageHeight="4681" math="0" shadow="0">
      <root>
        <mxCell id="0" />
        <mxCell id="1" parent="0" />
        <mxCell id="pIeUTdMdYG4i5QMNmfUO-8" value="" style="edgeStyle=orthogonalEdgeStyle;rounded=0;orthogonalLoop=1;jettySize=auto;html=1;" parent="1" source="cU4-2mLXnspjtvhaOZda-1" target="pIeUTdMdYG4i5QMNmfUO-1" edge="1">
          <mxGeometry relative="1" as="geometry" />
        </mxCell>
        <mxCell id="cU4-2mLXnspjtvhaOZda-1" value="시작" style="ellipse;whiteSpace=wrap;html=1;" parent="1" vertex="1">
          <mxGeometry x="20" y="20" width="120" height="80" as="geometry" />
        </mxCell>
        <mxCell id="pIeUTdMdYG4i5QMNmfUO-7" style="edgeStyle=orthogonalEdgeStyle;rounded=0;orthogonalLoop=1;jettySize=auto;html=1;exitX=0.5;exitY=1;exitDx=0;exitDy=0;" parent="1" source="pIeUTdMdYG4i5QMNmfUO-1" edge="1">
          <mxGeometry relative="1" as="geometry">
            <mxPoint x="80" y="250" as="targetPoint" />
          </mxGeometry>
        </mxCell>
        <mxCell id="pIeUTdMdYG4i5QMNmfUO-1" value="첫화면" style="rounded=0;whiteSpace=wrap;html=1;" parent="1" vertex="1">
          <mxGeometry x="20" y="150" width="120" height="60" as="geometry" />
        </mxCell>
        <mxCell id="pIeUTdMdYG4i5QMNmfUO-3" value="" style="endArrow=none;html=1;entryX=0.5;entryY=1;entryDx=0;entryDy=0;" parent="1" source="pIeUTdMdYG4i5QMNmfUO-1" target="cU4-2mLXnspjtvhaOZda-1" edge="1">
          <mxGeometry width="50" height="50" relative="1" as="geometry">
            <mxPoint x="40" y="150" as="sourcePoint" />
            <mxPoint x="90" y="100" as="targetPoint" />
          </mxGeometry>
        </mxCell>
        <mxCell id="pIeUTdMdYG4i5QMNmfUO-6" style="edgeStyle=orthogonalEdgeStyle;rounded=0;orthogonalLoop=1;jettySize=auto;html=1;exitX=1;exitY=0.5;exitDx=0;exitDy=0;fillColor=#f8cecc;strokeColor=#b85450;" parent="1" source="pIeUTdMdYG4i5QMNmfUO-4" edge="1">
          <mxGeometry relative="1" as="geometry">
            <mxPoint x="200" y="290" as="targetPoint" />
          </mxGeometry>
        </mxCell>
        <mxCell id="pIeUTdMdYG4i5QMNmfUO-11" style="edgeStyle=orthogonalEdgeStyle;rounded=0;orthogonalLoop=1;jettySize=auto;html=1;exitX=0.5;exitY=1;exitDx=0;exitDy=0;entryX=0.5;entryY=0;entryDx=0;entryDy=0;fillColor=#dae8fc;strokeColor=#6c8ebf;" parent="1" source="pIeUTdMdYG4i5QMNmfUO-4" edge="1">
          <mxGeometry relative="1" as="geometry">
            <mxPoint x="80" y="370" as="targetPoint" />
          </mxGeometry>
        </mxCell>
        <mxCell id="pIeUTdMdYG4i5QMNmfUO-4" value="회원가입" style="rhombus;whiteSpace=wrap;html=1;" parent="1" vertex="1">
          <mxGeometry x="20" y="250" width="120" height="80" as="geometry" />
        </mxCell>
        <mxCell id="pIeUTdMdYG4i5QMNmfUO-5" value="" style="endArrow=none;html=1;entryX=0.5;entryY=1;entryDx=0;entryDy=0;" parent="1" source="pIeUTdMdYG4i5QMNmfUO-4" target="pIeUTdMdYG4i5QMNmfUO-1" edge="1">
          <mxGeometry width="50" height="50" relative="1" as="geometry">
            <mxPoint x="40" y="260" as="sourcePoint" />
            <mxPoint x="90" y="210" as="targetPoint" />
          </mxGeometry>
        </mxCell>
        <mxCell id="aWaKsQ2O3t7kNbBKUAZW-5" style="edgeStyle=orthogonalEdgeStyle;rounded=0;orthogonalLoop=1;jettySize=auto;html=1;exitX=1;exitY=0.5;exitDx=0;exitDy=0;entryX=0;entryY=0.5;entryDx=0;entryDy=0;" edge="1" parent="1" source="pIeUTdMdYG4i5QMNmfUO-9" target="aWaKsQ2O3t7kNbBKUAZW-4">
          <mxGeometry relative="1" as="geometry" />
        </mxCell>
        <mxCell id="pIeUTdMdYG4i5QMNmfUO-9" value="로그인" style="rounded=0;whiteSpace=wrap;html=1;" parent="1" vertex="1">
          <mxGeometry x="200" y="260" width="120" height="60" as="geometry" />
        </mxCell>
        <mxCell id="pIeUTdMdYG4i5QMNmfUO-14" style="edgeStyle=orthogonalEdgeStyle;rounded=0;orthogonalLoop=1;jettySize=auto;html=1;exitX=0.5;exitY=1;exitDx=0;exitDy=0;entryX=0.5;entryY=0;entryDx=0;entryDy=0;" parent="1" target="pIeUTdMdYG4i5QMNmfUO-13" edge="1">
          <mxGeometry relative="1" as="geometry">
            <mxPoint x="80" y="430" as="sourcePoint" />
          </mxGeometry>
        </mxCell>
        <mxCell id="pIeUTdMdYG4i5QMNmfUO-15" style="edgeStyle=orthogonalEdgeStyle;rounded=0;orthogonalLoop=1;jettySize=auto;html=1;exitX=1;exitY=0.5;exitDx=0;exitDy=0;fillColor=#f8cecc;strokeColor=#b85450;" parent="1" source="pIeUTdMdYG4i5QMNmfUO-13" edge="1">
          <mxGeometry relative="1" as="geometry">
            <mxPoint x="200" y="510" as="targetPoint" />
          </mxGeometry>
        </mxCell>
        <mxCell id="pIeUTdMdYG4i5QMNmfUO-16" style="edgeStyle=orthogonalEdgeStyle;rounded=0;orthogonalLoop=1;jettySize=auto;html=1;exitX=0.5;exitY=1;exitDx=0;exitDy=0;fillColor=#dae8fc;strokeColor=#6c8ebf;" parent="1" source="pIeUTdMdYG4i5QMNmfUO-13" edge="1">
          <mxGeometry relative="1" as="geometry">
            <mxPoint x="80" y="600" as="targetPoint" />
          </mxGeometry>
        </mxCell>
        <mxCell id="pIeUTdMdYG4i5QMNmfUO-13" value="모든 정보, Getcha가 적절입력됨" style="rhombus;whiteSpace=wrap;html=1;" parent="1" vertex="1">
          <mxGeometry x="20" y="470" width="120" height="80" as="geometry" />
        </mxCell>
        <mxCell id="pIeUTdMdYG4i5QMNmfUO-19" style="edgeStyle=orthogonalEdgeStyle;rounded=0;orthogonalLoop=1;jettySize=auto;html=1;exitX=0.5;exitY=0;exitDx=0;exitDy=0;entryX=1;entryY=0.5;entryDx=0;entryDy=0;" parent="1" source="pIeUTdMdYG4i5QMNmfUO-18" target="aWaKsQ2O3t7kNbBKUAZW-2" edge="1">
          <mxGeometry relative="1" as="geometry">
            <mxPoint x="140" y="400" as="targetPoint" />
            <Array as="points">
              <mxPoint x="260" y="400" />
            </Array>
          </mxGeometry>
        </mxCell>
        <mxCell id="pIeUTdMdYG4i5QMNmfUO-18" value="Ajax를 통해 틀린게 있으면 밑에 경고문구" style="rounded=0;whiteSpace=wrap;html=1;" parent="1" vertex="1">
          <mxGeometry x="200" y="480" width="120" height="60" as="geometry" />
        </mxCell>
        <mxCell id="pIeUTdMdYG4i5QMNmfUO-22" style="edgeStyle=orthogonalEdgeStyle;rounded=0;orthogonalLoop=1;jettySize=auto;html=1;exitX=0.5;exitY=1;exitDx=0;exitDy=0;entryX=0.5;entryY=0;entryDx=0;entryDy=0;" parent="1" target="pIeUTdMdYG4i5QMNmfUO-21" edge="1">
          <mxGeometry relative="1" as="geometry">
            <mxPoint x="80" y="660" as="sourcePoint" />
          </mxGeometry>
        </mxCell>
        <mxCell id="pIeUTdMdYG4i5QMNmfUO-24" style="edgeStyle=orthogonalEdgeStyle;rounded=0;orthogonalLoop=1;jettySize=auto;html=1;exitX=0.5;exitY=1;exitDx=0;exitDy=0;entryX=0.5;entryY=0;entryDx=0;entryDy=0;" parent="1" source="pIeUTdMdYG4i5QMNmfUO-21" target="pIeUTdMdYG4i5QMNmfUO-23" edge="1">
          <mxGeometry relative="1" as="geometry" />
        </mxCell>
        <mxCell id="pIeUTdMdYG4i5QMNmfUO-21" value="가입한 회원 ID/PW를 세션에 저장(아니면 spring security?)" style="rounded=0;whiteSpace=wrap;html=1;" parent="1" vertex="1">
          <mxGeometry x="20" y="710" width="120" height="60" as="geometry" />
        </mxCell>
        <mxCell id="pIeUTdMdYG4i5QMNmfUO-26" style="edgeStyle=orthogonalEdgeStyle;rounded=0;orthogonalLoop=1;jettySize=auto;html=1;exitX=0.5;exitY=1;exitDx=0;exitDy=0;entryX=0.5;entryY=0;entryDx=0;entryDy=0;" parent="1" source="pIeUTdMdYG4i5QMNmfUO-23" target="pIeUTdMdYG4i5QMNmfUO-25" edge="1">
          <mxGeometry relative="1" as="geometry" />
        </mxCell>
        <mxCell id="pIeUTdMdYG4i5QMNmfUO-23" value="Goal 페이지(로그인 된 상태로)" style="rounded=0;whiteSpace=wrap;html=1;" parent="1" vertex="1">
          <mxGeometry x="20" y="820" width="120" height="60" as="geometry" />
        </mxCell>
        <mxCell id="pIeUTdMdYG4i5QMNmfUO-28" style="edgeStyle=orthogonalEdgeStyle;rounded=0;orthogonalLoop=1;jettySize=auto;html=1;exitX=0.5;exitY=1;exitDx=0;exitDy=0;entryX=0.5;entryY=0;entryDx=0;entryDy=0;" parent="1" source="pIeUTdMdYG4i5QMNmfUO-25" edge="1">
          <mxGeometry relative="1" as="geometry">
            <mxPoint x="80" y="1040" as="targetPoint" />
          </mxGeometry>
        </mxCell>
        <mxCell id="pIeUTdMdYG4i5QMNmfUO-25" value="카테고리 선택" style="rounded=0;whiteSpace=wrap;html=1;" parent="1" vertex="1">
          <mxGeometry x="20" y="930" width="120" height="60" as="geometry" />
        </mxCell>
        <mxCell id="pIeUTdMdYG4i5QMNmfUO-30" style="edgeStyle=orthogonalEdgeStyle;rounded=0;orthogonalLoop=1;jettySize=auto;html=1;exitX=0.5;exitY=1;exitDx=0;exitDy=0;entryX=0.5;entryY=0;entryDx=0;entryDy=0;" parent="1" target="pIeUTdMdYG4i5QMNmfUO-29" edge="1">
          <mxGeometry relative="1" as="geometry">
            <mxPoint x="80" y="1100" as="sourcePoint" />
          </mxGeometry>
        </mxCell>
        <mxCell id="pIeUTdMdYG4i5QMNmfUO-32" style="edgeStyle=orthogonalEdgeStyle;rounded=0;orthogonalLoop=1;jettySize=auto;html=1;exitX=1;exitY=0.5;exitDx=0;exitDy=0;entryX=0;entryY=0.5;entryDx=0;entryDy=0;fillColor=#f8cecc;strokeColor=#b85450;" parent="1" source="pIeUTdMdYG4i5QMNmfUO-29" target="pIeUTdMdYG4i5QMNmfUO-31" edge="1">
          <mxGeometry relative="1" as="geometry" />
        </mxCell>
        <mxCell id="pIeUTdMdYG4i5QMNmfUO-35" style="edgeStyle=orthogonalEdgeStyle;rounded=0;orthogonalLoop=1;jettySize=auto;html=1;exitX=0.5;exitY=1;exitDx=0;exitDy=0;entryX=0.5;entryY=0;entryDx=0;entryDy=0;fillColor=#dae8fc;strokeColor=#6c8ebf;" parent="1" source="pIeUTdMdYG4i5QMNmfUO-29" edge="1">
          <mxGeometry relative="1" as="geometry">
            <mxPoint x="80" y="1278" as="targetPoint" />
          </mxGeometry>
        </mxCell>
        <mxCell id="pIeUTdMdYG4i5QMNmfUO-29" value="정보가 적절히 입력됨" style="rhombus;whiteSpace=wrap;html=1;" parent="1" vertex="1">
          <mxGeometry x="20" y="1150" width="120" height="80" as="geometry" />
        </mxCell>
        <mxCell id="pIeUTdMdYG4i5QMNmfUO-36" style="edgeStyle=orthogonalEdgeStyle;rounded=0;orthogonalLoop=1;jettySize=auto;html=1;exitX=0.5;exitY=0;exitDx=0;exitDy=0;entryX=1;entryY=0.5;entryDx=0;entryDy=0;" parent="1" source="pIeUTdMdYG4i5QMNmfUO-31" edge="1">
          <mxGeometry relative="1" as="geometry">
            <mxPoint x="140" y="1070" as="targetPoint" />
            <Array as="points">
              <mxPoint x="250" y="1070" />
            </Array>
          </mxGeometry>
        </mxCell>
        <mxCell id="pIeUTdMdYG4i5QMNmfUO-31" value="Ajax를 통해 틀린게 있으면 밑에 경고문구" style="rounded=0;whiteSpace=wrap;html=1;" parent="1" vertex="1">
          <mxGeometry x="190" y="1160" width="120" height="60" as="geometry" />
        </mxCell>
        <mxCell id="pIeUTdMdYG4i5QMNmfUO-38" style="edgeStyle=orthogonalEdgeStyle;rounded=0;orthogonalLoop=1;jettySize=auto;html=1;exitX=0.5;exitY=1;exitDx=0;exitDy=0;entryX=0.5;entryY=0;entryDx=0;entryDy=0;" parent="1" edge="1">
          <mxGeometry relative="1" as="geometry">
            <mxPoint x="80" y="1338" as="sourcePoint" />
            <mxPoint x="80" y="1390" as="targetPoint" />
          </mxGeometry>
        </mxCell>
        <mxCell id="aWaKsQ2O3t7kNbBKUAZW-12" style="edgeStyle=orthogonalEdgeStyle;rounded=0;orthogonalLoop=1;jettySize=auto;html=1;exitX=0.5;exitY=1;exitDx=0;exitDy=0;entryX=0.5;entryY=0;entryDx=0;entryDy=0;" edge="1" parent="1" source="aWaKsQ2O3t7kNbBKUAZW-1" target="aWaKsQ2O3t7kNbBKUAZW-11">
          <mxGeometry relative="1" as="geometry" />
        </mxCell>
        <mxCell id="aWaKsQ2O3t7kNbBKUAZW-1" value="KR 입력" style="shape=parallelogram;perimeter=parallelogramPerimeter;whiteSpace=wrap;html=1;fixedSize=1;" vertex="1" parent="1">
          <mxGeometry x="20" y="1390" width="120" height="60" as="geometry" />
        </mxCell>
        <mxCell id="aWaKsQ2O3t7kNbBKUAZW-2" value="사용자 정보 입력" style="shape=parallelogram;perimeter=parallelogramPerimeter;whiteSpace=wrap;html=1;fixedSize=1;" vertex="1" parent="1">
          <mxGeometry x="20" y="370" width="120" height="60" as="geometry" />
        </mxCell>
        <mxCell id="aWaKsQ2O3t7kNbBKUAZW-3" value="&lt;span&gt;선택된 카테고리를 캐시? 등에 저장 뒤&lt;/span&gt;&lt;br&gt;&lt;span&gt;OB 입력 페이지에서 사용자가 OB를 입력&lt;/span&gt;" style="shape=parallelogram;perimeter=parallelogramPerimeter;whiteSpace=wrap;html=1;fixedSize=1;" vertex="1" parent="1">
          <mxGeometry x="20" y="1040" width="120" height="60" as="geometry" />
        </mxCell>
        <mxCell id="aWaKsQ2O3t7kNbBKUAZW-6" style="edgeStyle=orthogonalEdgeStyle;rounded=0;orthogonalLoop=1;jettySize=auto;html=1;exitX=1;exitY=0.5;exitDx=0;exitDy=0;fillColor=#dae8fc;strokeColor=#6c8ebf;" edge="1" parent="1" source="aWaKsQ2O3t7kNbBKUAZW-4" target="aWaKsQ2O3t7kNbBKUAZW-7">
          <mxGeometry relative="1" as="geometry">
            <mxPoint x="750" y="290" as="targetPoint" />
          </mxGeometry>
        </mxCell>
        <mxCell id="aWaKsQ2O3t7kNbBKUAZW-9" style="edgeStyle=orthogonalEdgeStyle;rounded=0;orthogonalLoop=1;jettySize=auto;html=1;exitX=0.5;exitY=0;exitDx=0;exitDy=0;entryX=0.5;entryY=1;entryDx=0;entryDy=0;fillColor=#f8cecc;strokeColor=#b85450;" edge="1" parent="1" source="aWaKsQ2O3t7kNbBKUAZW-4" target="aWaKsQ2O3t7kNbBKUAZW-8">
          <mxGeometry relative="1" as="geometry" />
        </mxCell>
        <mxCell id="aWaKsQ2O3t7kNbBKUAZW-4" value="ID/PW 일치" style="rhombus;whiteSpace=wrap;html=1;" vertex="1" parent="1">
          <mxGeometry x="390" y="250" width="120" height="80" as="geometry" />
        </mxCell>
        <mxCell id="aWaKsQ2O3t7kNbBKUAZW-7" value="Calendar" style="rounded=0;whiteSpace=wrap;html=1;" vertex="1" parent="1">
          <mxGeometry x="730" y="260" width="120" height="60" as="geometry" />
        </mxCell>
        <mxCell id="aWaKsQ2O3t7kNbBKUAZW-10" style="edgeStyle=orthogonalEdgeStyle;rounded=0;orthogonalLoop=1;jettySize=auto;html=1;exitX=0;exitY=0.5;exitDx=0;exitDy=0;entryX=0.5;entryY=0;entryDx=0;entryDy=0;" edge="1" parent="1" source="aWaKsQ2O3t7kNbBKUAZW-8" target="pIeUTdMdYG4i5QMNmfUO-9">
          <mxGeometry relative="1" as="geometry" />
        </mxCell>
        <mxCell id="aWaKsQ2O3t7kNbBKUAZW-8" value="경고" style="rounded=0;whiteSpace=wrap;html=1;" vertex="1" parent="1">
          <mxGeometry x="390" y="140" width="120" height="60" as="geometry" />
        </mxCell>
        <mxCell id="aWaKsQ2O3t7kNbBKUAZW-14" style="edgeStyle=orthogonalEdgeStyle;rounded=0;orthogonalLoop=1;jettySize=auto;html=1;exitX=1;exitY=0.5;exitDx=0;exitDy=0;entryX=0;entryY=0.5;entryDx=0;entryDy=0;fillColor=#f8cecc;strokeColor=#b85450;" edge="1" parent="1" source="aWaKsQ2O3t7kNbBKUAZW-11" target="aWaKsQ2O3t7kNbBKUAZW-13">
          <mxGeometry relative="1" as="geometry" />
        </mxCell>
        <mxCell id="aWaKsQ2O3t7kNbBKUAZW-17" style="edgeStyle=orthogonalEdgeStyle;rounded=0;orthogonalLoop=1;jettySize=auto;html=1;exitX=0.5;exitY=1;exitDx=0;exitDy=0;fillColor=#dae8fc;strokeColor=#6c8ebf;" edge="1" parent="1" source="aWaKsQ2O3t7kNbBKUAZW-11" target="aWaKsQ2O3t7kNbBKUAZW-18">
          <mxGeometry relative="1" as="geometry">
            <mxPoint x="80" y="1620" as="targetPoint" />
          </mxGeometry>
        </mxCell>
        <mxCell id="aWaKsQ2O3t7kNbBKUAZW-11" value="정보가 적절히 입력됨" style="rhombus;whiteSpace=wrap;html=1;" vertex="1" parent="1">
          <mxGeometry x="20" y="1490" width="120" height="80" as="geometry" />
        </mxCell>
        <mxCell id="aWaKsQ2O3t7kNbBKUAZW-13" value="Ajax를 통해 틀린게 있으면 밑에 경고문구" style="rounded=0;whiteSpace=wrap;html=1;" vertex="1" parent="1">
          <mxGeometry x="190" y="1500" width="120" height="60" as="geometry" />
        </mxCell>
        <mxCell id="aWaKsQ2O3t7kNbBKUAZW-15" value="OB테이블" style="shape=cylinder3;whiteSpace=wrap;html=1;boundedLbl=1;backgroundOutline=1;size=15;" vertex="1" parent="1">
          <mxGeometry x="50" y="1280" width="60" height="80" as="geometry" />
        </mxCell>
        <mxCell id="aWaKsQ2O3t7kNbBKUAZW-16" value="Member 테이블" style="shape=cylinder3;whiteSpace=wrap;html=1;boundedLbl=1;backgroundOutline=1;size=15;" vertex="1" parent="1">
          <mxGeometry x="50" y="600" width="60" height="80" as="geometry" />
        </mxCell>
        <mxCell id="aWaKsQ2O3t7kNbBKUAZW-18" value="KR 테이블" style="shape=cylinder3;whiteSpace=wrap;html=1;boundedLbl=1;backgroundOutline=1;size=15;" vertex="1" parent="1">
          <mxGeometry x="50" y="1610" width="60" height="80" as="geometry" />
        </mxCell>
      </root>
    </mxGraphModel>
  </diagram>
</mxfile>
